<svg width="159" height="20" viewBox="0 0 159 20" fill="none" xmlns="http://www.w3.org/2000/svg">
<path d="M0 0.0303602L5.74414 0C7.34962 4.81598 9.39439 9.50656 10.8869 14.353C12.9109 9.61204 14.6771 4.75738 16.6904 0.00831972L21.5017 0.0171116C23.4659 4.53938 25.3965 9.94843 26.8606 14.6507C27.8185 12.9571 28.6603 11.1803 29.5495 9.44678C31.1608 6.29161 32.7997 3.14944 34.466 0.022391L39.3819 0.00211033C43.0581 6.6104 46.7693 13.1997 50.5152 19.7691C50.1354 20.1418 45.371 19.9519 44.5059 19.9496C43.0448 17.5656 41.8011 14.9906 40.4737 12.527C39.2407 10.2379 37.8831 7.99109 36.7396 5.65869C35.2854 8.3556 33.9053 11.0994 32.5044 13.8244C31.4629 15.8521 30.3633 17.8703 29.4225 19.9449H23.7688C22.8818 16.5553 21.5466 13.1763 20.3802 9.86872C19.8686 8.41889 19.3192 6.9878 18.9633 5.48874C16.9288 10.2543 15.3122 15.1922 13.2617 19.9519L7.78035 19.9484C6.6342 17.4461 5.75023 14.7468 4.75913 12.1753L0 0.0303602Z" fill="#386FDE"/>
<path d="M57.1515 11.1705C57.1515 9.74621 57.339 8.43561 57.714 7.23864C58.089 6.04167 58.6363 4.9375 59.356 3.92614H60.9129C60.6326 4.30114 60.3712 4.76136 60.1288 5.30682C59.8863 5.85227 59.6742 6.45076 59.4924 7.10227C59.3106 7.75 59.1685 8.42235 59.0663 9.11932C58.964 9.8125 58.9129 10.4962 58.9129 11.1705C58.9129 12.072 59.0019 12.9848 59.1799 13.9091C59.3579 14.8333 59.5985 15.6913 59.9015 16.483C60.2045 17.2746 60.5417 17.9205 60.9129 18.4205H59.356C58.6363 17.4091 58.089 16.3049 57.714 15.108C57.339 13.911 57.1515 12.5985 57.1515 11.1705ZM66.2239 16.1761C65.3792 16.1761 64.652 15.9848 64.0421 15.6023C63.4361 15.2159 62.9702 14.6837 62.6444 14.0057C62.3186 13.3277 62.1558 12.5511 62.1558 11.6761C62.1558 10.7898 62.3224 10.0076 62.6558 9.32955C62.9891 8.64773 63.4588 8.11553 64.0649 7.73295C64.6709 7.35038 65.3849 7.15909 66.2069 7.15909C66.8698 7.15909 67.4607 7.2822 67.9796 7.52841C68.4986 7.77083 68.9171 8.11174 69.2353 8.55114C69.5573 8.99053 69.7486 9.50379 69.8092 10.0909H68.1558C68.0649 9.68182 67.8565 9.32955 67.5308 9.03409C67.2088 8.73864 66.777 8.59091 66.2353 8.59091C65.7618 8.59091 65.347 8.71591 64.991 8.96591C64.6387 9.21212 64.3641 9.56439 64.1671 10.0227C63.9702 10.4773 63.8717 11.0152 63.8717 11.6364C63.8717 12.2727 63.9683 12.822 64.1614 13.2841C64.3546 13.7462 64.6274 14.1042 64.9796 14.358C65.3357 14.6117 65.7542 14.7386 66.2353 14.7386C66.5573 14.7386 66.8489 14.6799 67.1103 14.5625C67.3755 14.4413 67.597 14.2689 67.7751 14.0455C67.9569 13.822 68.0838 13.553 68.1558 13.2386H69.8092C69.7486 13.803 69.5649 14.3068 69.258 14.75C68.9512 15.1932 68.5402 15.5417 68.0251 15.7955C67.5137 16.0492 66.9133 16.1761 66.2239 16.1761ZM73.3248 10.8182V16H71.6259V4.36364H73.3021V8.69318H73.41C73.6146 8.22348 73.9271 7.85038 74.3475 7.57386C74.768 7.29735 75.3172 7.15909 75.9953 7.15909C76.5937 7.15909 77.1165 7.2822 77.5634 7.52841C78.0142 7.77462 78.3627 8.14205 78.6089 8.63068C78.8589 9.11553 78.9839 9.72159 78.9839 10.4489V16H77.285V10.6534C77.285 10.0133 77.1203 9.51705 76.7907 9.16477C76.4612 8.80871 76.0028 8.63068 75.4157 8.63068C75.0142 8.63068 74.6543 8.71591 74.3362 8.88636C74.0218 9.05682 73.7737 9.30682 73.5918 9.63636C73.4138 9.96212 73.3248 10.3561 73.3248 10.8182ZM83.7907 16.1932C83.2377 16.1932 82.7377 16.0909 82.2907 15.8864C81.8437 15.678 81.4896 15.3769 81.2282 14.983C80.9706 14.589 80.8418 14.1061 80.8418 13.5341C80.8418 13.0417 80.9365 12.6364 81.1259 12.3182C81.3153 12 81.571 11.7481 81.893 11.5625C82.2149 11.3769 82.5748 11.2367 82.9725 11.142C83.3703 11.0473 83.7756 10.9754 84.1884 10.9261C84.7112 10.8655 85.1354 10.8163 85.4612 10.7784C85.7869 10.7367 86.0237 10.6705 86.1714 10.5795C86.3191 10.4886 86.393 10.3409 86.393 10.1364V10.0966C86.393 9.60038 86.2528 9.21591 85.9725 8.94318C85.696 8.67045 85.2831 8.53409 84.7339 8.53409C84.1619 8.53409 83.7112 8.66098 83.3816 8.91477C83.0559 9.16477 82.8305 9.44318 82.7055 9.75L81.1089 9.38636C81.2983 8.85606 81.5748 8.42803 81.9384 8.10227C82.3059 7.77273 82.7282 7.53409 83.2055 7.38636C83.6828 7.23485 84.1846 7.15909 84.7112 7.15909C85.0596 7.15909 85.429 7.20076 85.8191 7.28409C86.2131 7.36364 86.5805 7.51136 86.9214 7.72727C87.2661 7.94318 87.5483 8.25189 87.768 8.65341C87.9877 9.05114 88.0975 9.56818 88.0975 10.2045V16H86.4384V14.8068H86.3703C86.2604 15.0265 86.0956 15.2424 85.8759 15.4545C85.6562 15.6667 85.374 15.8428 85.0293 15.983C84.6846 16.1231 84.2718 16.1932 83.7907 16.1932ZM84.16 14.8295C84.6297 14.8295 85.0312 14.7367 85.3646 14.5511C85.7017 14.3655 85.9574 14.1231 86.1316 13.8239C86.3096 13.5208 86.3987 13.197 86.3987 12.8523V11.7273C86.3381 11.7879 86.2206 11.8447 86.0464 11.8977C85.8759 11.947 85.6809 11.9905 85.4612 12.0284C85.2415 12.0625 85.0274 12.0947 84.8191 12.125C84.6108 12.1515 84.4365 12.1742 84.2964 12.1932C83.9668 12.2348 83.6657 12.3049 83.393 12.4034C83.124 12.5019 82.9081 12.6439 82.7453 12.8295C82.5862 13.0114 82.5066 13.2538 82.5066 13.5568C82.5066 13.9773 82.6619 14.2955 82.9725 14.5114C83.2831 14.7235 83.679 14.8295 84.16 14.8295ZM90.3603 16V7.27273H92.0024V8.65909H92.0933C92.2524 8.18939 92.5327 7.82008 92.9342 7.55114C93.3395 7.27841 93.7978 7.14205 94.3092 7.14205C94.4152 7.14205 94.5402 7.14583 94.6842 7.15341C94.8319 7.16098 94.9474 7.17045 95.0308 7.18182V8.80682C94.9626 8.78788 94.8414 8.76705 94.6671 8.74432C94.4929 8.7178 94.3186 8.70455 94.1444 8.70455C93.7429 8.70455 93.3849 8.78977 93.0705 8.96023C92.7599 9.12689 92.5137 9.35985 92.3319 9.65909C92.1501 9.95455 92.0592 10.2917 92.0592 10.6705V16H90.3603ZM98.9626 16.1932C98.4095 16.1932 97.9095 16.0909 97.4626 15.8864C97.0156 15.678 96.6614 15.3769 96.4001 14.983C96.1425 14.589 96.0137 14.1061 96.0137 13.5341C96.0137 13.0417 96.1084 12.6364 96.2978 12.3182C96.4872 12 96.7429 11.7481 97.0649 11.5625C97.3868 11.3769 97.7467 11.2367 98.1444 11.142C98.5421 11.0473 98.9474 10.9754 99.3603 10.9261C99.883 10.8655 100.307 10.8163 100.633 10.7784C100.959 10.7367 101.196 10.6705 101.343 10.5795C101.491 10.4886 101.565 10.3409 101.565 10.1364V10.0966C101.565 9.60038 101.425 9.21591 101.144 8.94318C100.868 8.67045 100.455 8.53409 99.9058 8.53409C99.3338 8.53409 98.883 8.66098 98.5535 8.91477C98.2277 9.16477 98.0024 9.44318 97.8774 9.75L96.2808 9.38636C96.4702 8.85606 96.7467 8.42803 97.1103 8.10227C97.4777 7.77273 97.9001 7.53409 98.3774 7.38636C98.8546 7.23485 99.3565 7.15909 99.883 7.15909C100.232 7.15909 100.601 7.20076 100.991 7.28409C101.385 7.36364 101.752 7.51136 102.093 7.72727C102.438 7.94318 102.72 8.25189 102.94 8.65341C103.16 9.05114 103.269 9.56818 103.269 10.2045V16H101.61V14.8068H101.542C101.432 15.0265 101.268 15.2424 101.048 15.4545C100.828 15.6667 100.546 15.8428 100.201 15.983C99.8565 16.1231 99.4436 16.1932 98.9626 16.1932ZM99.3319 14.8295C99.8016 14.8295 100.203 14.7367 100.536 14.5511C100.874 14.3655 101.129 14.1231 101.303 13.8239C101.482 13.5208 101.571 13.197 101.571 12.8523V11.7273C101.51 11.7879 101.393 11.8447 101.218 11.8977C101.048 11.947 100.853 11.9905 100.633 12.0284C100.413 12.0625 100.199 12.0947 99.991 12.125C99.7827 12.1515 99.6084 12.1742 99.4683 12.1932C99.1387 12.2348 98.8376 12.3049 98.5649 12.4034C98.2959 12.5019 98.08 12.6439 97.9171 12.8295C97.758 13.0114 97.6785 13.2538 97.6785 13.5568C97.6785 13.9773 97.8338 14.2955 98.1444 14.5114C98.455 14.7235 98.8508 14.8295 99.3319 14.8295ZM109.208 16.1761C108.364 16.1761 107.636 15.9848 107.027 15.6023C106.42 15.2159 105.955 14.6837 105.629 14.0057C105.303 13.3277 105.14 12.5511 105.14 11.6761C105.14 10.7898 105.307 10.0076 105.64 9.32955C105.973 8.64773 106.443 8.11553 107.049 7.73295C107.655 7.35038 108.369 7.15909 109.191 7.15909C109.854 7.15909 110.445 7.2822 110.964 7.52841C111.483 7.77083 111.902 8.11174 112.22 8.55114C112.542 8.99053 112.733 9.50379 112.794 10.0909H111.14C111.049 9.68182 110.841 9.32955 110.515 9.03409C110.193 8.73864 109.761 8.59091 109.22 8.59091C108.746 8.59091 108.331 8.71591 107.975 8.96591C107.623 9.21212 107.348 9.56439 107.152 10.0227C106.955 10.4773 106.856 11.0152 106.856 11.6364C106.856 12.2727 106.953 12.822 107.146 13.2841C107.339 13.7462 107.612 14.1042 107.964 14.358C108.32 14.6117 108.739 14.7386 109.22 14.7386C109.542 14.7386 109.833 14.6799 110.095 14.5625C110.36 14.4413 110.581 14.2689 110.759 14.0455C110.941 13.822 111.068 13.553 111.14 13.2386H112.794C112.733 13.803 112.549 14.3068 112.242 14.75C111.936 15.1932 111.525 15.5417 111.009 15.7955C110.498 16.0492 109.898 16.1761 109.208 16.1761ZM118.684 7.27273V8.63636H113.917V7.27273H118.684ZM115.196 5.18182H116.894V13.4375C116.894 13.767 116.944 14.0152 117.042 14.1818C117.141 14.3447 117.268 14.4564 117.423 14.517C117.582 14.5739 117.754 14.6023 117.94 14.6023C118.076 14.6023 118.196 14.5928 118.298 14.5739C118.4 14.5549 118.48 14.5398 118.536 14.5284L118.843 15.9318C118.745 15.9697 118.605 16.0076 118.423 16.0455C118.241 16.0871 118.014 16.1098 117.741 16.1136C117.294 16.1212 116.877 16.0417 116.491 15.875C116.105 15.7083 115.792 15.4508 115.553 15.1023C115.315 14.7538 115.196 14.3163 115.196 13.7898V5.18182ZM124.231 16.1761C123.371 16.1761 122.631 15.9924 122.009 15.625C121.392 15.2538 120.915 14.733 120.578 14.0625C120.244 13.3883 120.078 12.5985 120.078 11.6932C120.078 10.7992 120.244 10.0114 120.578 9.32955C120.915 8.64773 121.384 8.11553 121.987 7.73295C122.593 7.35038 123.301 7.15909 124.112 7.15909C124.604 7.15909 125.081 7.24053 125.544 7.40341C126.006 7.56629 126.42 7.82197 126.788 8.17045C127.155 8.51894 127.445 8.97159 127.657 9.52841C127.869 10.0814 127.975 10.7538 127.975 11.5455V12.1477H121.038V10.875H126.311C126.311 10.428 126.22 10.0322 126.038 9.6875C125.856 9.33902 125.6 9.06439 125.271 8.86364C124.945 8.66288 124.562 8.5625 124.123 8.5625C123.646 8.5625 123.229 8.67992 122.873 8.91477C122.521 9.14583 122.248 9.44886 122.055 9.82386C121.866 10.1951 121.771 10.5985 121.771 11.0341V12.0284C121.771 12.6117 121.873 13.108 122.078 13.517C122.286 13.9261 122.576 14.2386 122.947 14.4545C123.318 14.6667 123.752 14.7727 124.248 14.7727C124.57 14.7727 124.864 14.7273 125.129 14.6364C125.394 14.5417 125.623 14.4015 125.816 14.2159C126.009 14.0303 126.157 13.8011 126.259 13.5284L127.867 13.8182C127.739 14.2917 127.508 14.7064 127.174 15.0625C126.845 15.4148 126.43 15.6894 125.93 15.8864C125.434 16.0795 124.867 16.1761 124.231 16.1761ZM129.86 16V7.27273H131.502V8.65909H131.593C131.752 8.18939 132.033 7.82008 132.434 7.55114C132.839 7.27841 133.298 7.14205 133.809 7.14205C133.915 7.14205 134.04 7.14583 134.184 7.15341C134.332 7.16098 134.447 7.17045 134.531 7.18182V8.80682C134.463 8.78788 134.341 8.76705 134.167 8.74432C133.993 8.7178 133.819 8.70455 133.644 8.70455C133.243 8.70455 132.885 8.78977 132.571 8.96023C132.26 9.12689 132.014 9.35985 131.832 9.65909C131.65 9.95455 131.559 10.2917 131.559 10.6705V16H129.86ZM136.12 16.108C135.81 16.108 135.543 15.9981 135.319 15.7784C135.096 15.5549 134.984 15.286 134.984 14.9716C134.984 14.661 135.096 14.3958 135.319 14.1761C135.543 13.9527 135.81 13.8409 136.12 13.8409C136.431 13.8409 136.698 13.9527 136.921 14.1761C137.145 14.3958 137.257 14.661 137.257 14.9716C137.257 15.1799 137.204 15.3712 137.098 15.5455C136.995 15.7159 136.859 15.8523 136.688 15.9545C136.518 16.0568 136.329 16.108 136.12 16.108ZM142.072 16.1932C141.519 16.1932 141.019 16.0909 140.572 15.8864C140.125 15.678 139.771 15.3769 139.509 14.983C139.252 14.589 139.123 14.1061 139.123 13.5341C139.123 13.0417 139.218 12.6364 139.407 12.3182C139.597 12 139.852 11.7481 140.174 11.5625C140.496 11.3769 140.856 11.2367 141.254 11.142C141.652 11.0473 142.057 10.9754 142.47 10.9261C142.992 10.8655 143.417 10.8163 143.742 10.7784C144.068 10.7367 144.305 10.6705 144.453 10.5795C144.6 10.4886 144.674 10.3409 144.674 10.1364V10.0966C144.674 9.60038 144.534 9.21591 144.254 8.94318C143.977 8.67045 143.564 8.53409 143.015 8.53409C142.443 8.53409 141.992 8.66098 141.663 8.91477C141.337 9.16477 141.112 9.44318 140.987 9.75L139.39 9.38636C139.58 8.85606 139.856 8.42803 140.22 8.10227C140.587 7.77273 141.009 7.53409 141.487 7.38636C141.964 7.23485 142.466 7.15909 142.992 7.15909C143.341 7.15909 143.71 7.20076 144.1 7.28409C144.494 7.36364 144.862 7.51136 145.203 7.72727C145.547 7.94318 145.83 8.25189 146.049 8.65341C146.269 9.05114 146.379 9.56818 146.379 10.2045V16H144.72V14.8068H144.652C144.542 15.0265 144.377 15.2424 144.157 15.4545C143.937 15.6667 143.655 15.8428 143.311 15.983C142.966 16.1231 142.553 16.1932 142.072 16.1932ZM142.441 14.8295C142.911 14.8295 143.312 14.7367 143.646 14.5511C143.983 14.3655 144.239 14.1231 144.413 13.8239C144.591 13.5208 144.68 13.197 144.68 12.8523V11.7273C144.619 11.7879 144.502 11.8447 144.328 11.8977C144.157 11.947 143.962 11.9905 143.742 12.0284C143.523 12.0625 143.309 12.0947 143.1 12.125C142.892 12.1515 142.718 12.1742 142.578 12.1932C142.248 12.2348 141.947 12.3049 141.674 12.4034C141.405 12.5019 141.189 12.6439 141.027 12.8295C140.867 13.0114 140.788 13.2538 140.788 13.5568C140.788 13.9773 140.943 14.2955 141.254 14.5114C141.564 14.7235 141.96 14.8295 142.441 14.8295ZM148.642 16V7.27273H150.34V16H148.642ZM149.5 5.92614C149.204 5.92614 148.95 5.82765 148.738 5.63068C148.53 5.42992 148.426 5.19129 148.426 4.91477C148.426 4.63447 148.53 4.39583 148.738 4.19886C148.95 3.99811 149.204 3.89773 149.5 3.89773C149.795 3.89773 150.047 3.99811 150.255 4.19886C150.467 4.39583 150.573 4.63447 150.573 4.91477C150.573 5.19129 150.467 5.42992 150.255 5.63068C150.047 5.82765 149.795 5.92614 149.5 5.92614ZM156.44 11.1705C156.44 12.5985 156.252 13.911 155.877 15.108C155.502 16.3049 154.955 17.4091 154.235 18.4205H152.678C152.959 18.0455 153.22 17.5852 153.463 17.0398C153.705 16.4943 153.917 15.8977 154.099 15.25C154.281 14.5985 154.423 13.9242 154.525 13.2273C154.627 12.5303 154.678 11.8447 154.678 11.1705C154.678 10.2727 154.589 9.36174 154.411 8.4375C154.233 7.51326 153.993 6.6553 153.69 5.86364C153.387 5.07197 153.05 4.42614 152.678 3.92614H154.235C154.955 4.9375 155.502 6.04167 155.877 7.23864C156.252 8.43561 156.44 9.74621 156.44 11.1705Z" fill="black"/>
</svg>
