<svg width="107" height="26" viewBox="0 0 107 26" fill="none" xmlns="http://www.w3.org/2000/svg">
<path d="M0 3.03036L5.74414 3C7.34962 7.81598 9.39439 12.5066 10.8869 17.353C12.9109 12.612 14.6771 7.75738 16.6904 3.00832L21.5017 3.01711C23.4659 7.53938 25.3965 12.9484 26.8606 17.6507C27.8185 15.9571 28.6603 14.1803 29.5495 12.4468C31.1608 9.29161 32.7997 6.14944 34.466 3.02239L39.3819 3.00211C43.0581 9.6104 46.7693 16.1997 50.5152 22.7691C50.1354 23.1418 45.371 22.9519 44.5059 22.9496C43.0448 20.5656 41.8011 17.9906 40.4737 15.527C39.2407 13.2379 37.8831 10.9911 36.7396 8.65869C35.2854 11.3556 33.9053 14.0994 32.5044 16.8244C31.4629 18.8521 30.3633 20.8703 29.4225 22.9449H23.7688C22.8818 19.5553 21.5466 16.1763 20.3802 12.8687C19.8686 11.4189 19.3192 9.9878 18.9633 8.48874C16.9288 13.2543 15.3122 18.1922 13.2617 22.9519L7.78035 22.9484C6.6342 20.4461 5.75023 17.7468 4.75913 15.1753L0 3.03036Z" fill="#386FDE"/>
<path d="M57.6408 14.7265C57.6408 12.8764 57.8843 11.1739 58.3714 9.61907C58.8586 8.06422 59.5696 6.62991 60.5044 5.31616H62.5267C62.1626 5.80328 61.8231 6.40111 61.5082 7.10965C61.1933 7.8182 60.9178 8.59562 60.6816 9.44193C60.4454 10.2833 60.2609 11.1567 60.128 12.0621C59.9952 12.9625 59.9288 13.8506 59.9288 14.7265C59.9288 15.8975 60.0444 17.0833 60.2756 18.2839C60.5069 19.4845 60.8193 20.599 61.213 21.6274C61.6066 22.6557 62.0445 23.4947 62.5267 24.1441H60.5044C59.5696 22.8304 58.8586 21.3961 58.3714 19.8412C57.8843 18.2864 57.6408 16.5815 57.6408 14.7265ZM69.4258 21.2288C68.3285 21.2288 67.3838 20.9803 66.5916 20.4834C65.8043 19.9815 65.1991 19.2902 64.776 18.4094C64.3528 17.5286 64.1412 16.52 64.1412 15.3833C64.1412 14.232 64.3577 13.2159 64.7907 12.3351C65.2237 11.4495 65.8339 10.7581 66.6211 10.2612C67.4084 9.76422 68.3359 9.51574 69.4036 9.51574C70.2647 9.51574 71.0323 9.67565 71.7064 9.99548C72.3805 10.3104 72.9242 10.7532 73.3375 11.324C73.7557 11.8948 74.0042 12.5615 74.083 13.3241H71.9352C71.8171 12.7927 71.5465 12.3351 71.1233 11.9513C70.7051 11.5676 70.1442 11.3757 69.4405 11.3757C68.8255 11.3757 68.2867 11.538 67.8242 11.8628C67.3666 12.1826 67.0099 12.6402 66.754 13.2356C66.4981 13.826 66.3702 14.5247 66.3702 15.3317C66.3702 16.1583 66.4957 16.8718 66.7466 17.4721C66.9976 18.0724 67.3518 18.5373 67.8094 18.867C68.2719 19.1967 68.8156 19.3615 69.4405 19.3615C69.8588 19.3615 70.2376 19.2852 70.5772 19.1327C70.9216 18.9752 71.2094 18.7514 71.4407 18.4611C71.6769 18.1708 71.8417 17.8214 71.9352 17.413H74.083C74.0042 18.1462 73.7656 18.8006 73.367 19.3763C72.9685 19.952 72.4346 20.4046 71.7654 20.7343C71.1012 21.064 70.3213 21.2288 69.4258 21.2288ZM77.8969 21.1402C77.4934 21.1402 77.1465 20.9975 76.8562 20.7122C76.5659 20.4219 76.4208 20.0725 76.4208 19.6641C76.4208 19.2606 76.5659 18.9162 76.8562 18.6308C77.1465 18.3405 77.4934 18.1954 77.8969 18.1954C78.3004 18.1954 78.6473 18.3405 78.9376 18.6308C79.2279 18.9162 79.373 19.2606 79.373 19.6641C79.373 19.9347 79.3041 20.1832 79.1664 20.4095C79.0335 20.631 78.8564 20.8081 78.635 20.941C78.4135 21.0738 78.1675 21.1402 77.8969 21.1402ZM85.6281 21.2509C84.9097 21.2509 84.2602 21.1181 83.6796 20.8524C83.099 20.5818 82.639 20.1906 82.2994 19.6789C81.9649 19.1671 81.7976 18.5398 81.7976 17.7968C81.7976 17.1572 81.9206 16.6307 82.1666 16.2174C82.4126 15.804 82.7447 15.4768 83.163 15.2357C83.5812 14.9946 84.0487 14.8126 84.5653 14.6896C85.0819 14.5666 85.6084 14.4731 86.1448 14.4091C86.8238 14.3304 87.3749 14.2664 87.798 14.2172C88.2212 14.1631 88.5287 14.077 88.7206 13.9589C88.9125 13.8408 89.0084 13.6489 89.0084 13.3832V13.3315C89.0084 12.687 88.8264 12.1875 88.4623 11.8333C88.1031 11.479 87.5668 11.3019 86.8533 11.3019C86.1103 11.3019 85.5248 11.4667 85.0967 11.7964C84.6735 12.1211 84.3808 12.4828 84.2184 12.8813L82.1444 12.4089C82.3905 11.7201 82.7497 11.1641 83.222 10.7409C83.6993 10.3128 84.2479 10.0029 84.8679 9.81096C85.4879 9.61415 86.1398 9.51574 86.8238 9.51574C87.2764 9.51574 87.7562 9.56986 88.263 9.67811C88.7747 9.78144 89.252 9.97334 89.6948 10.2538C90.1426 10.5343 90.5092 10.9353 90.7945 11.4568C91.0799 11.9735 91.2226 12.6451 91.2226 13.4718V21H89.0675V19.4501H88.9789C88.8362 19.7355 88.6222 20.0159 88.3368 20.2915C88.0514 20.567 87.6848 20.7958 87.2371 20.9779C86.7893 21.1599 86.253 21.2509 85.6281 21.2509ZM86.1078 19.4796C86.718 19.4796 87.2395 19.359 87.6725 19.1179C88.1105 18.8768 88.4426 18.5619 88.6689 18.1732C88.9002 17.7796 89.0158 17.3589 89.0158 16.9111V15.4498C88.9371 15.5285 88.7846 15.6023 88.5582 15.6712C88.3368 15.7352 88.0834 15.7917 87.798 15.8409C87.5126 15.8852 87.2346 15.927 86.964 15.9664C86.6934 16.0009 86.467 16.0304 86.285 16.055C85.8569 16.1091 85.4657 16.2001 85.1115 16.3281C84.7621 16.456 84.4816 16.6405 84.2701 16.8816C84.0634 17.1178 83.9601 17.4327 83.9601 17.8263C83.9601 18.3725 84.1618 18.7858 84.5653 19.0663C84.9688 19.3418 85.483 19.4796 86.1078 19.4796ZM94.162 21V9.66335H96.3688V21H94.162ZM95.2764 7.91414C94.8926 7.91414 94.563 7.78621 94.2874 7.53035C94.0168 7.26957 93.8815 6.95958 93.8815 6.60039C93.8815 6.23628 94.0168 5.92629 94.2874 5.67043C94.563 5.40965 94.8926 5.27926 95.2764 5.27926C95.6602 5.27926 95.9874 5.40965 96.2581 5.67043C96.5336 5.92629 96.6714 6.23628 96.6714 6.60039C96.6714 6.95958 96.5336 7.26957 96.2581 7.53035C95.9874 7.78621 95.6602 7.91414 95.2764 7.91414ZM104.292 14.7265C104.292 16.5815 104.048 18.2864 103.561 19.8412C103.074 21.3961 102.363 22.8304 101.428 24.1441H99.4059C99.77 23.657 100.11 23.0592 100.424 22.3507C100.739 21.6421 101.015 20.8671 101.251 20.0258C101.487 19.1794 101.672 18.3036 101.805 17.3983C101.937 16.4929 102.004 15.6023 102.004 14.7265C102.004 13.5603 101.888 12.377 101.657 11.1764C101.426 9.9758 101.113 8.86132 100.72 7.83296C100.326 6.80459 99.8881 5.96566 99.4059 5.31616H101.428C102.363 6.62991 103.074 8.06422 103.561 9.61907C104.048 11.1739 104.292 12.8764 104.292 14.7265Z" fill="black"/>
</svg>
